<svg id="hanwha-logo-reversed-kr" xmlns="http://www.w3.org/2000/svg" width="176.628" height="51.128" viewBox="0 0 176.628 51.128">
  <g id="Group_1" data-name="Group 1">
    <path id="Path_1" data-name="Path 1" d="M21.717,26.912c-.76-6.649,6.269-11.968,15.577-11.873S54.77,20.549,55.53,27.2,49.261,39.165,39.953,39.07,22.477,33.561,21.717,26.912M57.24,29c-.855-8.263-10.258-15.007-20.991-15.1S17.538,20.454,18.3,28.622c.855,8.263,10.258,15.007,20.991,15.1C50.116,43.819,58.095,37.265,57.24,29" transform="translate(-0.953 -0.682)" fill="#fbb584"/>
    <path id="Path_2" data-name="Path 2" d="M40.918,44.267c-5.319,5.509-13.772,5.984-19,1.045s-5.129-13.487.19-19,13.772-5.984,19-1.045,5.129,13.487-.19,19M21.352,26.125c-6.174,6.459-6.269,16.337-.19,22.036,5.984,5.794,15.862,5.224,22.036-1.235s6.269-16.337.19-22.036c-5.984-5.7-15.862-5.224-22.036,1.235" transform="translate(-0.873 -1.035)" fill="#f89b6c"/>
    <path id="Path_3" data-name="Path 3" d="M21.088,4.368C32.106.284,42.934,4.463,45.4,13.677c2.375,9.308-4.559,20.136-15.577,24.315-11.018,4.084-21.846,0-24.315-9.308C3.136,19.375,10.07,8.548,21.088,4.368M10.925,7.978C-.473,17-3.417,30.108,4.466,37.232c7.788,7.124,23.46,5.509,34.858-3.514S53.667,11.587,45.783,4.463s-23.46-5.6-34.858,3.514" transform="translate(-0.039 0.016)" fill="#f37321"/>
  </g>
  <g id="Group_2" data-name="Group 2" transform="translate(63.98 15.212)">
    <path id="Path_4" data-name="Path 4" d="M80.222,20.844H67.4v-2.09H80.222Zm-6.459,8.928a6.07,6.07,0,0,1-3.989-1.235,3.612,3.612,0,0,1,0-5.889,7.061,7.061,0,0,1,7.978,0,3.612,3.612,0,0,1,0,5.889A6.07,6.07,0,0,1,73.764,29.772Zm1.045,4.749H85.921v2.185H74.049c-2.565,0-3.8-1.14-3.8-3.514v-2.28H73.1v1.995C73.1,33.952,73.669,34.521,74.809,34.521ZM70.534,16h6.554v2.09H70.534Zm3.229,11.778a2.587,2.587,0,0,0,1.9-.665,1.728,1.728,0,0,0,.76-1.52,1.983,1.983,0,0,0-.76-1.52,3.282,3.282,0,0,0-1.9-.665,2.587,2.587,0,0,0-1.9.665,1.728,1.728,0,0,0-.76,1.52,1.846,1.846,0,0,0,.76,1.52A2.738,2.738,0,0,0,73.764,27.778Zm11.968-6.269h2.944v2.28H85.731v7.219H82.882V16.285h2.849Z" transform="translate(-67.4 -16)" fill="#fff"/>
    <path id="Path_5" data-name="Path 5" d="M97.314,29.677a5.316,5.316,0,0,1-2.564-1.14,3.932,3.932,0,0,1-1.52-2.944,3.646,3.646,0,0,1,1.52-2.944,7.062,7.062,0,0,1,7.978,0,3.612,3.612,0,0,1,0,5.889,5.316,5.316,0,0,1-2.565,1.14v2.185H103.3c2.849,0,4.274-1.14,4.274-3.324V16.285h2.849v6.839h2.944V25.4h-2.944v11.3h-2.849v-3.8a5.505,5.505,0,0,1-3.8,1.14H91.9V31.862h5.509V29.677Zm7.788-8.833H92.28v-2.09H105.1ZM95.509,16h6.554v2.09H95.509Zm3.229,11.778a2.587,2.587,0,0,0,1.9-.665,1.728,1.728,0,0,0,.76-1.52,1.983,1.983,0,0,0-.76-1.52,3.282,3.282,0,0,0-1.9-.665,2.587,2.587,0,0,0-1.9.665,1.728,1.728,0,0,0-.76,1.52,1.846,1.846,0,0,0,.76,1.52A2.738,2.738,0,0,0,98.739,27.778Z" transform="translate(-68.629 -16)" fill="#fff"/>
    <path id="Path_6" data-name="Path 6" d="M127.073,30.262v2.185H120.8c-2.47,0-3.7-1.235-3.7-3.8V16.68h8.833v2.185h-6.079v4.274h5.129v2.185h-5.129v3.229c0,1.14.475,1.71,1.52,1.71ZM129.068,16.3h2.754V36.721h-2.754V25.513H126.5v-2.28h2.565Zm4.369,0h2.754V36.721h-2.754Z" transform="translate(-69.894 -16.015)" fill="#fff"/>
    <path id="Path_7" data-name="Path 7" d="M161.6,34.667H140.7v-2.28h20.9ZM142.79,23.934h13.392V20.894c0-1.14-.57-1.71-1.8-1.71H142.79V17h12.633c2.375,0,3.609,1.235,3.609,3.609v9.878h-2.849V26.308H142.79Z" transform="translate(-71.078 -16.05)" fill="#fff"/>
    <path id="Path_8" data-name="Path 8" d="M166.835,21.619a4.472,4.472,0,0,1,1.8-3.8,6.8,6.8,0,0,1,4.464-1.425,6.981,6.981,0,0,1,4.464,1.425,4.867,4.867,0,0,1,1.8,3.8,4.725,4.725,0,0,1-1.425,3.514h3.039v2.185h-7.409v3.039h-2.849V27.318H165.6V25.133h2.66A4.725,4.725,0,0,1,166.835,21.619ZM173.2,34.536h11.778v2.185H172.439c-2.565,0-3.8-1.235-3.8-3.8v-1.8h2.849v1.615C171.489,33.967,172.059,34.536,173.2,34.536Zm-3.514-12.917a2.816,2.816,0,0,0,.95,2.28,3.725,3.725,0,0,0,4.749,0,2.816,2.816,0,0,0,.95-2.28,3.15,3.15,0,0,0-.95-2.375,3.552,3.552,0,0,0-2.375-.95,3.473,3.473,0,0,0-2.375.855A3.516,3.516,0,0,0,169.684,21.619Zm15.2-5.319V32.257h-2.849V16.3Z" transform="translate(-72.328 -16.015)" fill="#fff"/>
  </g>
</svg>
